<svg width="100" height="100" viewBox="0 0 100 100" fill="none" xmlns="http://www.w3.org/2000/svg">
<path d="M93.6 37.5004C93.2 36.8004 92.4 36.5004 91.5 36.9004C89.3 37.8004 84.3 41.2004 80.6 44.5004C79.3 39.4004 76.8 33.6004 74.5 29.5004C70.5 22.7004 62 18.6004 60.9 13.8004C59.6 8.40042 64.1 5.00042 62.9 2.10042C62.4 1.00042 61.2 0.30042 59.3 1.00042C55.6 2.30042 41.1 10.1004 30.1 23.1004C26.2 27.6004 22 33.7004 19 44.4004C15.9 42.1004 10.1 37.9004 8.10002 36.9004C7.30002 36.6004 6.50002 36.6004 6.10002 37.5004C5.30002 38.7004 6.90002 45.5004 9.60002 51.3004C11.3 55.1004 13.6 58.8004 17.5 62.3004C18.2 68.2004 19.8 73.8004 23.5 78.9004C21.6 82.3004 19.5 87.6004 19.5 91.6004C19.5 97.1004 23.5 99.4004 28 99.4004C31.8 99.4004 37.6 97.8004 40.4 94.3004C42.9 95.1004 46 95.6004 49.7 95.6004C52.7 95.6004 56.5 95.2004 59.4 94.3004C61.6 96.8004 66.9 99.4004 71.6 99.5004C75.9 99.6004 79.9 97.6004 80.1 92.3004C80.2 88.9004 78.6 83.5004 76.3 79.0004C79.9 74.4004 81.4 69.0004 82.3 62.4004C85.2 60.3004 87.6 57.0004 89.3 53.5004C91.6 48.9004 93.3 42.8004 93.9 39.4004C94 38.4004 93.8 37.7004 93.6 37.5004ZM36.3 67.2004C32.7 67.2004 28.7 64.5004 28.7 56.1004C28.7 48.6004 32.2 41.5004 36.4 41.5004C39.4 41.5004 43.8 45.9004 43.9 55.4004C44 62.7004 41.1 67.2004 36.3 67.2004ZM62.1 67.3004C58.7 67.3004 54.3 65.1004 54.3 56.2004C54.3 48.2004 58.1 41.5004 62.2 41.5004C65.6 41.5004 69.9 46.6004 70 55.5004C70.1 63.1004 66.8 67.3004 62.1 67.3004Z" fill="white"/>
<ellipse cx="38.5" cy="54.5" rx="2.5" ry="4.5" fill="white"/>
<ellipse cx="60.5" cy="54.5" rx="2.5" ry="4.5" fill="white"/>
</svg>
